<mxfile host="Electron" modified="2024-04-29T09:16:55.991Z" agent="Mozilla/5.0 (X11; Linux x86_64) AppleWebKit/537.36 (KHTML, like Gecko) draw.io/24.2.5 Chrome/120.0.6099.109 Electron/28.1.0 Safari/537.36" etag="EqHwcSI3QilWz4CtPjmm" version="24.2.5" type="device">
  <diagram id="R2lEEEUBdFMjLlhIrx00" name="Page-1">
    <mxGraphModel dx="1122" dy="678" grid="1" gridSize="10" guides="1" tooltips="1" connect="1" arrows="1" fold="1" page="1" pageScale="1" pageWidth="1169" pageHeight="827" math="0" shadow="0" extFonts="Permanent Marker^https://fonts.googleapis.com/css?family=Permanent+Marker">
      <root>
        <mxCell id="0" />
        <mxCell id="1" parent="0" />
        <mxCell id="1T2bqdTXxD9RY-aOahLc-1" value="Utente" style="shape=umlActor;verticalLabelPosition=bottom;verticalAlign=top;html=1;" vertex="1" parent="1">
          <mxGeometry x="300" y="350" width="30" height="60" as="geometry" />
        </mxCell>
        <mxCell id="1T2bqdTXxD9RY-aOahLc-2" value="Registrazione_Login" style="ellipse;whiteSpace=wrap;html=1;" vertex="1" parent="1">
          <mxGeometry x="520" y="200" width="140" height="40" as="geometry" />
        </mxCell>
        <mxCell id="1T2bqdTXxD9RY-aOahLc-3" value="Strumenti_Case" style="ellipse;whiteSpace=wrap;html=1;" vertex="1" parent="1">
          <mxGeometry x="520" y="360" width="140" height="40" as="geometry" />
        </mxCell>
        <mxCell id="1T2bqdTXxD9RY-aOahLc-4" value="Strumenti_Feedback" style="ellipse;whiteSpace=wrap;html=1;" vertex="1" parent="1">
          <mxGeometry x="520" y="520" width="140" height="40" as="geometry" />
        </mxCell>
        <mxCell id="1T2bqdTXxD9RY-aOahLc-5" value="Gestione_Prenotazioni" style="ellipse;whiteSpace=wrap;html=1;" vertex="1" parent="1">
          <mxGeometry x="520" y="440" width="140" height="40" as="geometry" />
        </mxCell>
        <mxCell id="1T2bqdTXxD9RY-aOahLc-6" value="" style="endArrow=none;html=1;rounded=0;" edge="1" parent="1" source="1T2bqdTXxD9RY-aOahLc-1" target="1T2bqdTXxD9RY-aOahLc-5">
          <mxGeometry width="50" height="50" relative="1" as="geometry">
            <mxPoint x="460" y="400" as="sourcePoint" />
            <mxPoint x="510" y="350" as="targetPoint" />
          </mxGeometry>
        </mxCell>
        <mxCell id="1T2bqdTXxD9RY-aOahLc-7" value="" style="endArrow=none;html=1;rounded=0;" edge="1" parent="1" source="1T2bqdTXxD9RY-aOahLc-1" target="1T2bqdTXxD9RY-aOahLc-2">
          <mxGeometry width="50" height="50" relative="1" as="geometry">
            <mxPoint x="470" y="410" as="sourcePoint" />
            <mxPoint x="520" y="360" as="targetPoint" />
          </mxGeometry>
        </mxCell>
        <mxCell id="1T2bqdTXxD9RY-aOahLc-8" value="" style="endArrow=none;html=1;rounded=0;" edge="1" parent="1" source="1T2bqdTXxD9RY-aOahLc-1" target="1T2bqdTXxD9RY-aOahLc-3">
          <mxGeometry width="50" height="50" relative="1" as="geometry">
            <mxPoint x="470" y="410" as="sourcePoint" />
            <mxPoint x="520" y="360" as="targetPoint" />
          </mxGeometry>
        </mxCell>
        <mxCell id="1T2bqdTXxD9RY-aOahLc-11" value="Ricerca_Case" style="ellipse;whiteSpace=wrap;html=1;" vertex="1" parent="1">
          <mxGeometry x="520" y="280" width="140" height="40" as="geometry" />
        </mxCell>
        <mxCell id="1T2bqdTXxD9RY-aOahLc-12" value="" style="endArrow=none;html=1;rounded=0;" edge="1" parent="1" source="1T2bqdTXxD9RY-aOahLc-1" target="1T2bqdTXxD9RY-aOahLc-11">
          <mxGeometry width="50" height="50" relative="1" as="geometry">
            <mxPoint x="460" y="400" as="sourcePoint" />
            <mxPoint x="510" y="350" as="targetPoint" />
          </mxGeometry>
        </mxCell>
        <mxCell id="1T2bqdTXxD9RY-aOahLc-13" value="" style="endArrow=none;html=1;rounded=0;" edge="1" parent="1" source="1T2bqdTXxD9RY-aOahLc-1" target="1T2bqdTXxD9RY-aOahLc-4">
          <mxGeometry width="50" height="50" relative="1" as="geometry">
            <mxPoint x="460" y="400" as="sourcePoint" />
            <mxPoint x="510" y="350" as="targetPoint" />
          </mxGeometry>
        </mxCell>
      </root>
    </mxGraphModel>
  </diagram>
</mxfile>
